<svg xmlns="http://www.w3.org/2000/svg" width="20" height="21"><path data-name="Forma 1" d="M19.362 11.74A3.587 3.587 0 0020 9.68a3.045 3.045 0 00-.989-2.26 3.253 3.253 0 00-2.344-.96h-2.292A5.385 5.385 0 0015 4.04a5.1 5.1 0 00-.455-2.35A2.805 2.805 0 0013.216.41 4.618 4.618 0 0011.25 0a1.687 1.687 0 00-1.172.47 2.964 2.964 0 00-.807 1.36c-.165.56-.3 1.09-.4 1.6a2.153 2.153 0 01-.462 1.08c-.426.44-.89.98-1.394 1.61a11.8 11.8 0 01-1.784 1.96H1.664a1.654 1.654 0 00-1.179.47 1.546 1.546 0 00-.488 1.14v8.08a1.53 1.53 0 00.488 1.14 1.613 1.613 0 001.179.47h3.75a9.792 9.792 0 011.8.51c1.068.36 2.008.64 2.819.83a10.794 10.794 0 002.468.28h1.68a4.216 4.216 0 002.955-1.02 3.5 3.5 0 001.107-2.77 3.448 3.448 0 00.781-2.24 3.671 3.671 0 00-.039-.55 3.5 3.5 0 00.5-1.81 3.122 3.122 0 00-.123-.87zM3.086 17.53a.835.835 0 01-1.172 0 .781.781 0 010-1.14.835.835 0 011.172 0 .781.781 0 010 1.14zm14.968-6.81a.865.865 0 01-.7.59 1.639 1.639 0 01.326.6 2.167 2.167 0 01.13.7 1.965 1.965 0 01-.69 1.5 1.71 1.71 0 01.234.87 2.1 2.1 0 01-.228.93 1.432 1.432 0 01-.618.66 4.229 4.229 0 01.065.71q0 2.1-2.5 2.1H12.5a14.6 14.6 0 01-4.453-.92c-.043-.01-.169-.06-.378-.13s-.362-.12-.462-.16-.252-.08-.456-.14a5.027 5.027 0 00-.494-.14 3.964 3.964 0 00-.43-.08 2.231 2.231 0 00-.41-.04H5V9.69h.417a1.235 1.235 0 00.462-.11 2.4 2.4 0 00.521-.34q.267-.225.5-.45c.157-.15.33-.33.521-.55l.449-.54c.109-.14.245-.31.41-.52s.265-.34.3-.38c.477-.57.812-.95 1-1.15a3.152 3.152 0 00.775-1.38c.161-.56.293-1.08.4-1.58a2 2 0 01.5-1.07 1.913 1.913 0 011.667.59 3.188 3.188 0 01.416 1.83 4.979 4.979 0 01-.625 2.02 5.078 5.078 0 00-.624 2.02h4.583a1.642 1.642 0 011.159.48 1.529 1.529 0 01.508 1.13 2.444 2.444 0 01-.285 1.03z" fill="#fff" fill-rule="evenodd"/></svg>