<svg xmlns="http://www.w3.org/2000/svg" width="20" height="21" viewBox="0 0 20 21">
  <defs>
    <style>
      .cls-1 {
        fill: #fff;
        fill-rule: evenodd;
      }
    </style>
  </defs>
  <path id="Forma_1" data-name="Forma 1" class="cls-1" d="M750.362,1321.74a3.587,3.587,0,0,0,.638-2.06,3.045,3.045,0,0,0-.989-2.26,3.253,3.253,0,0,0-2.344-.96h-2.292a5.385,5.385,0,0,0,.625-2.42,5.1,5.1,0,0,0-.455-2.35,2.805,2.805,0,0,0-1.329-1.28,4.618,4.618,0,0,0-1.966-.41,1.687,1.687,0,0,0-1.172.47,2.964,2.964,0,0,0-.807,1.36c-0.165.56-.3,1.09-0.4,1.6a2.153,2.153,0,0,1-.462,1.08c-0.426.44-.89,0.98-1.394,1.61a11.8,11.8,0,0,1-1.784,1.96h-3.567a1.654,1.654,0,0,0-1.179.47,1.546,1.546,0,0,0-.488,1.14v8.08a1.53,1.53,0,0,0,.488,1.14,1.613,1.613,0,0,0,1.179.47h3.75a9.792,9.792,0,0,1,1.8.51c1.068,0.36,2.008.64,2.819,0.83a10.794,10.794,0,0,0,2.468.28h1.68a4.216,4.216,0,0,0,2.955-1.02,3.5,3.5,0,0,0,1.107-2.77,3.448,3.448,0,0,0,.781-2.24,3.671,3.671,0,0,0-.039-0.55,3.5,3.5,0,0,0,.5-1.81A3.122,3.122,0,0,0,750.362,1321.74Zm-16.276,5.79a0.835,0.835,0,0,1-1.172,0,0.781,0.781,0,0,1,0-1.14,0.835,0.835,0,0,1,1.172,0A0.781,0.781,0,0,1,734.086,1327.53Zm14.968-6.81a0.865,0.865,0,0,1-.7.59,1.639,1.639,0,0,1,.326.6,2.167,2.167,0,0,1,.13.7,1.965,1.965,0,0,1-.69,1.5,1.71,1.71,0,0,1,.234.87,2.1,2.1,0,0,1-.228.93,1.432,1.432,0,0,1-.618.66,4.229,4.229,0,0,1,.065.71q0,2.1-2.5,2.1H743.5a14.6,14.6,0,0,1-4.453-.92c-0.043-.01-0.169-0.06-0.378-0.13s-0.362-.12-0.462-0.16-0.252-.08-0.456-0.14a5.027,5.027,0,0,0-.494-0.14,3.964,3.964,0,0,0-.43-0.08,2.231,2.231,0,0,0-.41-0.04H736v-8.08h0.417a1.235,1.235,0,0,0,.462-0.11,2.4,2.4,0,0,0,.521-0.34q0.267-.225.5-0.45c0.157-.15.33-0.33,0.521-0.55l0.449-.54c0.109-.14.245-0.31,0.41-0.52s0.265-.34.3-0.38c0.477-.57.812-0.95,1-1.15a3.152,3.152,0,0,0,.775-1.38c0.161-.56.293-1.08,0.4-1.58a2,2,0,0,1,.5-1.07,1.913,1.913,0,0,1,1.667.59,3.188,3.188,0,0,1,.416,1.83,4.979,4.979,0,0,1-.625,2.02,5.078,5.078,0,0,0-.624,2.02h4.583a1.642,1.642,0,0,1,1.159.48,1.529,1.529,0,0,1,.508,1.13A2.444,2.444,0,0,1,749.054,1320.72Z" transform="translate(-731 -1310)"/>
</svg>
